REM DIRINDEX 1\5,1\2\6,1\2\7,1\3\8,1\3\9,1\4\10,1\4\11,1\4\12
REM DIRNAME folder01,folder02,folder03,folder04,folder05,folder06,folder07,folder08,folder09,folder10,folder11,folder12
TITLE ""
FILE "EJE_DB3000_5th_2A_53.mp3" MP3
  TRACK 01 AUDIO
    TITLE "0:"
    INDEX 01 00:00:00
  TRACK 02 AUDIO
    TITLE "10:cjc026_08292"
    INDEX 01 00:00:05
  TRACK 03 AUDIO
    TITLE "0:"
    INDEX 01 00:01:09
  TRACK 04 AUDIO
    TITLE "11:cjc026_08293"
    INDEX 01 00:01:34
  TRACK 05 AUDIO
    TITLE "0:"
    INDEX 01 00:02:36
  TRACK 06 AUDIO
    TITLE "12:cjc026_08294"
    INDEX 01 00:02:61
  TRACK 07 AUDIO
    TITLE "0:"
    INDEX 01 00:03:64
  TRACK 08 AUDIO
    TITLE "10:cjc026_08295"
    INDEX 01 00:04:15
  TRACK 09 AUDIO
    TITLE "0:"
    INDEX 01 00:06:04
  TRACK 10 AUDIO
    TITLE "11:cjc026_08296"
    INDEX 01 00:06:30
  TRACK 11 AUDIO
    TITLE "0:"
    INDEX 01 00:07:47
  TRACK 12 AUDIO
    TITLE "12:cjc026_08297"
    INDEX 01 00:07:72
  TRACK 13 AUDIO
    TITLE "0:"
    INDEX 01 00:09:59
  TRACK 14 AUDIO
    TITLE "10:cjc026_08298"
    INDEX 01 00:10:10
  TRACK 15 AUDIO
    TITLE "0:"
    INDEX 01 00:11:17
  TRACK 16 AUDIO
    TITLE "11:cjc026_08299"
    INDEX 01 00:11:44
  TRACK 17 AUDIO
    TITLE "0:"
    INDEX 01 00:12:63
  TRACK 18 AUDIO
    TITLE "12:cjc026_08300"
    INDEX 01 00:13:14
  TRACK 19 AUDIO
    TITLE "0:"
    INDEX 01 00:14:21
  TRACK 20 AUDIO
    TITLE "10:cjc026_08301"
    INDEX 01 00:14:47
  TRACK 21 AUDIO
    TITLE "0:"
    INDEX 01 00:15:46
  TRACK 22 AUDIO
    TITLE "11:cjc026_08302"
    INDEX 01 00:15:74
  TRACK 23 AUDIO
    TITLE "0:"
    INDEX 01 00:17:35
  TRACK 24 AUDIO
    TITLE "12:cjc026_08303"
    INDEX 01 00:17:61
  TRACK 25 AUDIO
    TITLE "0:"
    INDEX 01 00:18:60
  TRACK 26 AUDIO
    TITLE "10:cjc026_08304"
    INDEX 01 00:19:11
  TRACK 27 AUDIO
    TITLE "0:"
    INDEX 01 00:20:16
  TRACK 28 AUDIO
    TITLE "11:cjc026_08305"
    INDEX 01 00:20:41
  TRACK 29 AUDIO
    TITLE "0:"
    INDEX 01 00:21:55
  TRACK 30 AUDIO
    TITLE "12:cjc026_08306"
    INDEX 01 00:22:05
  TRACK 31 AUDIO
    TITLE "0:"
    INDEX 01 00:23:08
  TRACK 32 AUDIO
    TITLE "10:cjc026_08307"
    INDEX 01 00:23:36
  TRACK 33 AUDIO
    TITLE "0:"
    INDEX 01 00:24:27
  TRACK 34 AUDIO
    TITLE "11:cjc026_08308"
    INDEX 01 00:24:53
  TRACK 35 AUDIO
    TITLE "0:"
    INDEX 01 00:25:58
  TRACK 36 AUDIO
    TITLE "12:cjc026_08309"
    INDEX 01 00:26:09
  TRACK 37 AUDIO
    TITLE "0:"
    INDEX 01 00:27:00
  TRACK 38 AUDIO
    TITLE "10:cjc026_08310"
    INDEX 01 00:27:26
  TRACK 39 AUDIO
    TITLE "0:"
    INDEX 01 00:28:17
  TRACK 40 AUDIO
    TITLE "11:cjc026_08311"
    INDEX 01 00:28:45
  TRACK 41 AUDIO
    TITLE "0:"
    INDEX 01 00:29:52
  TRACK 42 AUDIO
    TITLE "12:cjc026_08312"
    INDEX 01 00:30:03
  TRACK 43 AUDIO
    TITLE "0:"
    INDEX 01 00:30:69
  TRACK 44 AUDIO
    TITLE "10:cjc026_08313"
    INDEX 01 00:31:20
  TRACK 45 AUDIO
    TITLE "0:"
    INDEX 01 00:32:21
  TRACK 46 AUDIO
    TITLE "11:cjc026_08314"
    INDEX 01 00:32:48
  TRACK 47 AUDIO
    TITLE "0:"
    INDEX 01 00:33:48
  TRACK 48 AUDIO
    TITLE "12:cjc026_08315"
    INDEX 01 00:33:73
  TRACK 49 AUDIO
    TITLE "0:"
    INDEX 01 00:34:73
  TRACK 50 AUDIO
    TITLE "10:cjc026_08316"
    INDEX 01 00:35:25
  TRACK 51 AUDIO
    TITLE "0:"
    INDEX 01 00:36:19
  TRACK 52 AUDIO
    TITLE "11:cjc026_08317"
    INDEX 01 00:36:44
  TRACK 53 AUDIO
    TITLE "0:"
    INDEX 01 00:37:46
  TRACK 54 AUDIO
    TITLE "12:cjc026_08318"
    INDEX 01 00:37:71
  TRACK 55 AUDIO
    TITLE "0:"
    INDEX 01 00:38:65
  TRACK 56 AUDIO
    TITLE "10:cjc026_08319"
    INDEX 01 00:39:15
  TRACK 57 AUDIO
    TITLE "0:"
    INDEX 01 00:40:07
  TRACK 58 AUDIO
    TITLE "11:cjc026_08320"
    INDEX 01 00:40:34
  TRACK 59 AUDIO
    TITLE "0:"
    INDEX 01 00:41:63
  TRACK 60 AUDIO
    TITLE "12:cjc026_08321"
    INDEX 01 00:42:14
  TRACK 61 AUDIO
    TITLE "0:"
    INDEX 01 00:43:03
  TRACK 62 AUDIO
    TITLE "10:cjc026_08322"
    INDEX 01 00:43:31
  TRACK 63 AUDIO
    TITLE "0:"
    INDEX 01 00:44:26
  TRACK 64 AUDIO
    TITLE "11:cjc026_08323"
    INDEX 01 00:44:54
  TRACK 65 AUDIO
    TITLE "0:"
    INDEX 01 00:45:59
  TRACK 66 AUDIO
    TITLE "12:cjc026_08324"
    INDEX 01 00:46:09
  TRACK 67 AUDIO
    TITLE "0:"
    INDEX 01 00:47:05
  TRACK 68 AUDIO
    TITLE "10:cjc026_08325"
    INDEX 01 00:47:32
  TRACK 69 AUDIO
    TITLE "0:"
    INDEX 01 00:48:20
  TRACK 70 AUDIO
    TITLE "11:cjc026_08326"
    INDEX 01 00:48:48
  TRACK 71 AUDIO
    TITLE "0:"
    INDEX 01 00:49:63
  TRACK 72 AUDIO
    TITLE "12:cjc026_08327"
    INDEX 01 00:50:15
  TRACK 73 AUDIO
    TITLE "0:"
    INDEX 01 00:51:03
